<svg width="32" height="32" viewBox="0 0 32 32" fill="none" xmlns="http://www.w3.org/2000/svg">
  <defs>
    <linearGradient id="bgGradient" x1="0%" y1="0%" x2="100%" y2="100%">
      <stop offset="0%" style="stop-color:#0ea5e9;stop-opacity:1" />
      <stop offset="100%" style="stop-color:#0284c7;stop-opacity:1" />
    </linearGradient>
  </defs>
  <circle cx="16" cy="16" r="15" fill="url(#bgGradient)" stroke="#0369a1" stroke-width="1.5"/>
  <path d="M16 9C14.07 9 12.5 10.57 12.5 12.5C12.5 13.55 12.9 14.5 13.5 15.2L14 16H18L18.5 15.2C19.1 14.5 19.5 13.55 19.5 12.5C19.5 10.57 17.93 9 16 9Z" fill="white" opacity="0.95"/>
  <rect x="14.5" y="16" width="3" height="0.8" rx="0.4" fill="white" opacity="0.9"/>
  <rect x="13.5" y="17.5" width="5" height="0.8" rx="0.4" fill="white" opacity="0.9"/>
  <path d="M11.5 19.5L14 22L20.5 15.5" stroke="white" stroke-width="2.5" stroke-linecap="round" stroke-linejoin="round" fill="none"/>
  <circle cx="11.5" cy="19.5" r="1" fill="white"/>
  <circle cx="20.5" cy="15.5" r="1" fill="white"/>
</svg>
